<svg width="1124" height="160" viewBox="0 0 1124 160" fill="none" xmlns="http://www.w3.org/2000/svg">
<path d="M2 106.76L6.66937 104.374C16.6939 99.6387 45.8667 90.976 68.2667 98.3907C89.7333 105.805 112.133 142.879 133.6 154.001C156 165.123 177.467 150.293 199.867 142.879C221.333 135.464 243.733 135.464 265.2 116.927C287.6 98.3907 309.067 61.3174 331.467 57.61C352.933 53.9027 375.333 83.5614 397.733 94.6834C419.2 105.805 441.6 98.3907 463.067 90.976C485.467 83.5614 506.933 76.1467 529.333 87.2687C550.8 98.3907 573.2 128.049 594.667 131.757C617.067 135.464 638.533 113.22 660.933 90.976C682.4 68.732 704.8 46.488 726.267 35.366C748.667 24.244 771.067 24.244 792.533 31.6587C814.933 39.0733 836.4 53.9027 858.8 79.854C880.267 105.805 902.667 63.3306 924.133 85.5746C946.533 107.819 968 115.233 990.4 85.5746C1011.87 55.9159 1034.27 68.732 1055.73 35.366C1078.13 2 1099.6 2 1110.8 2H1122" stroke="#3B82F6" stroke-width="3" stroke-linecap="round" stroke-linejoin="round"/>
</svg>
