<svg width="20" height="20" viewBox="0 0 20 20" fill="none" xmlns="http://www.w3.org/2000/svg">
<g clip-path="url(#clip0_1836_4556)">
<g clip-path="url(#clip1_1836_4556)">
<path fill-rule="evenodd" clip-rule="evenodd" d="M-4 0H34V1.53906H-4V0ZM-4 3.07812H34V4.61719H-4V3.07812ZM-4 6.15234H34V7.69531H-4V6.15234ZM-4 9.23047H34V10.7695H-4V9.23047ZM-4 12.3086H34V13.8477H-4V12.3086ZM-4 15.3828H34V16.9219H-4V15.3828ZM-4 18.4609H34V20H-4V18.4609Z" fill="#BD3D44"/>
<path fill-rule="evenodd" clip-rule="evenodd" d="M-4 1.53906H34V3.07812H-4V1.53906ZM-4 4.61719H34V6.15234H-4V4.61719ZM-4 7.69141H34V9.23047H-4V7.69141ZM-4 10.7695H34V12.3086H-4V10.7695ZM-4 13.8477H34V15.3867H-4V13.8477ZM-4 16.9219H34V18.4609H-4V16.9219Z" fill="white"/>
<path fill-rule="evenodd" clip-rule="evenodd" d="M-4 0H11.1992V10.7695H-4V0Z" fill="#192F5D"/>
<path fill-rule="evenodd" clip-rule="evenodd" d="M-2.73437 0.460938L-2.59375 0.886719H-2.14844L-2.50781 1.14844L-2.37109 1.57812L-2.73437 1.3125L-3.09375 1.57422L-2.95703 1.14844L-3.32031 0.886719H-2.86719L-2.73437 0.460938ZM-0.199219 0.460938L-0.0624995 0.886719H0.386719L0.0234377 1.14844L0.160156 1.57812L-0.199219 1.3125L-0.5625 1.57422L-0.425781 1.14844L-0.785156 0.886719H-0.339844L-0.199219 0.460938ZM2.33203 0.460938L2.47266 0.886719H2.91406L2.55469 1.14844L2.69141 1.57812L2.32813 1.3125L1.96875 1.57422L2.10547 1.14844L1.74219 0.886719H2.19141L2.33203 0.460938ZM4.86719 0.460938L5.00391 0.886719H5.45313L5.08984 1.14844L5.23047 1.57812L4.86719 1.3125L4.50391 1.57422L4.64453 1.14844L4.28125 0.886719H4.72656L4.86719 0.460938ZM7.39844 0.460938L7.53906 0.886719H7.98438L7.625 1.14844L7.76172 1.57812L7.39844 1.3125L7.03906 1.57422L7.17578 1.14844L6.81641 0.886719H7.26172L7.39844 0.460938ZM9.9336 0.460938L10.0703 0.886719H10.5195L10.1563 1.14844L10.2969 1.57812L9.9336 1.3125L9.57031 1.57422L9.71094 1.14844L9.34766 0.886719H9.79688L9.9336 0.460938ZM-1.46484 1.53906L-1.32812 1.96484H-0.878906L-1.24219 2.22656L-1.10937 2.65234L-1.46094 2.39062L-1.82422 2.65234L-1.69531 2.22656L-2.04687 1.96484H-1.60156L-1.46484 1.53906ZM1.06641 1.53906L1.20703 1.96484H1.65234L1.28906 2.22656L1.42969 2.65234L1.06641 2.39062L0.703125 2.65234L0.84375 2.22656L0.480469 1.96484H0.929688L1.06641 1.53906ZM3.60156 1.53906L3.73828 1.96484H4.1875L3.82422 2.22656L3.96094 2.65234L3.60156 2.39062L3.23828 2.65234L3.375 2.22656L3.01563 1.96484H3.46094L3.60156 1.53906ZM6.13281 1.53906L6.27344 1.96484H6.71875L6.35547 2.22656L6.4961 2.65234L6.13281 2.39062L5.77344 2.65234L5.91016 2.22656L5.54688 1.96484H6L6.13281 1.53906ZM8.66797 1.53906L8.80469 1.96484H9.25391L8.89063 2.22656L9.02734 2.65234L8.66797 2.39062L8.30469 2.65234L8.44141 2.22656L8.08203 1.96484H8.52735L8.66797 1.53906ZM-2.73437 2.61328L-2.59375 3.04687H-2.14844L-2.50781 3.30859L-2.37109 3.73437L-2.73437 3.46875L-3.09375 3.73437L-2.95703 3.30469L-3.32031 3.04297H-2.86719L-2.73437 2.61328ZM-0.199219 2.61328L-0.0624995 3.04297H0.386719L0.0234377 3.30469L0.160156 3.73047L-0.199219 3.46484L-0.5625 3.73047L-0.425781 3.30078L-0.785156 3.03906H-0.339844L-0.199219 2.61328ZM2.33203 2.61328L2.47266 3.04297H2.91406L2.55469 3.30469L2.69141 3.73047L2.32813 3.46484L1.96875 3.73047L2.10547 3.30078L1.74219 3.03906H2.19141L2.33203 2.61328ZM4.86719 2.61328L5.00391 3.04297H5.45313L5.08984 3.30469L5.23047 3.73047L4.86719 3.46484L4.50391 3.73047L4.64453 3.30078L4.28125 3.03906H4.72656L4.86719 2.61328ZM7.39844 2.61328L7.53906 3.04297H7.98438L7.625 3.30469L7.76172 3.73047L7.39844 3.46484L7.03906 3.73047L7.17578 3.30078L6.81641 3.03906H7.26172L7.39844 2.61328ZM9.9336 2.61328L10.0703 3.04297H10.5195L10.1563 3.30469L10.2969 3.73047L9.9336 3.46484L9.57031 3.73047L9.71094 3.30078L9.34766 3.03906H9.79688L9.9336 2.61328ZM-1.46484 3.69141L-1.32812 4.11719H-0.878906L-1.24219 4.37891L-1.10547 4.80859L-1.46484 4.54297L-1.82812 4.80469L-1.69141 4.37891L-2.05078 4.11719H-1.60547L-1.46484 3.69141ZM1.06641 3.69141L1.20703 4.11719H1.65234L1.28906 4.37891L1.42969 4.80859L1.06641 4.54297L0.703125 4.80469L0.84375 4.37891L0.480469 4.11719H0.929688L1.06641 3.69141ZM3.60156 3.69141L3.73828 4.11719H4.1875L3.82422 4.37891L3.96094 4.80859L3.60156 4.54297L3.23828 4.80469L3.375 4.37891L3.01563 4.11719H3.46094L3.60156 3.69141ZM6.13281 3.69141L6.27344 4.11719H6.71875L6.35938 4.37891L6.4961 4.80859L6.13281 4.54297L5.77344 4.80469L5.91016 4.37891L5.54688 4.11719H6L6.13281 3.69141ZM8.66797 3.69141L8.80469 4.11719H9.25391L8.89063 4.37891L9.02734 4.80859L8.66797 4.54297L8.30469 4.80469L8.44141 4.37891L8.08203 4.11719H8.52735L8.66797 3.69141ZM-2.73437 4.76953L-2.59375 5.19531H-2.14844L-2.50781 5.45703L-2.37109 5.88672L-2.73437 5.62109L-3.09375 5.88281L-2.95703 5.45703L-3.32031 5.19531H-2.86719L-2.73437 4.76953ZM-0.199219 4.76953L-0.0624995 5.19531H0.386719L0.0234377 5.45703L0.160156 5.88281L-0.199219 5.62109L-0.5625 5.88281L-0.425781 5.45703L-0.785156 5.19531H-0.339844L-0.199219 4.76953ZM2.33203 4.76953L2.47266 5.19531H2.91406L2.55469 5.45703L2.69141 5.88672L2.32813 5.62109L1.96875 5.88281L2.10547 5.45703L1.74219 5.19531H2.19141L2.33203 4.76953ZM4.86719 4.76953L5.00391 5.19531H5.45313L5.08984 5.45703L5.23047 5.88672L4.86719 5.62109L4.50391 5.88281L4.64453 5.45703L4.28125 5.19531H4.72656L4.86719 4.76953ZM7.39844 4.76953L7.53906 5.19531H7.98438L7.625 5.45703L7.76172 5.88672L7.39844 5.62109L7.03906 5.88281L7.17578 5.45703L6.81641 5.19531H7.26172L7.39844 4.76953ZM9.9336 4.76953L10.0703 5.19531H10.5195L10.1563 5.45703L10.2969 5.88672L9.9336 5.62109L9.57031 5.88281L9.71094 5.45703L9.34766 5.19531H9.79688L9.9336 4.76953ZM-1.46484 5.84766L-1.32812 6.27344H-0.878906L-1.24219 6.53516L-1.10547 6.96094L-1.46484 6.69531L-1.82812 6.96094L-1.69141 6.53125L-2.05078 6.26953H-1.60547L-1.46484 5.84766ZM1.06641 5.84766L1.20703 6.27344H1.65234L1.28906 6.53516L1.42969 6.96094L1.06641 6.69531L0.703125 6.96094L0.84375 6.53125L0.480469 6.26953H0.929688L1.06641 5.84766ZM3.60156 5.84766L3.73828 6.27344H4.1875L3.82422 6.53516L3.96094 6.96094L3.60156 6.69531L3.23828 6.96094L3.375 6.53125L3.01563 6.26953H3.46094L3.60156 5.84766ZM6.13281 5.84766L6.27344 6.27344H6.71875L6.35938 6.53516L6.4961 6.96094L6.13281 6.69531L5.77344 6.96094L5.91016 6.53125L5.54688 6.26953H6L6.13281 5.84766ZM8.66797 5.84766L8.80469 6.27344H9.25391L8.89063 6.53516L9.02734 6.96094L8.66797 6.69531L8.30469 6.96094L8.44141 6.53125L8.08203 6.26953H8.52735L8.66797 5.84766ZM-2.73437 6.92187L-2.59375 7.35156H-2.14844L-2.50781 7.61328L-2.37109 8.03516L-2.73437 7.77344L-3.09375 8.03516L-2.95703 7.60937L-3.32031 7.34766H-2.86719L-2.73437 6.92187ZM-0.199219 6.92187L-0.0624995 7.35156H0.386719L0.0234377 7.61328L0.164063 8.03516L-0.199219 7.77344L-0.5625 8.03516L-0.421875 7.60937L-0.785156 7.34766H-0.339844L-0.199219 6.92187ZM2.33203 6.92187L2.47266 7.35156H2.91406L2.55469 7.61328L2.69141 8.03516L2.32813 7.77344L1.96875 8.03516L2.10547 7.60937L1.74219 7.34766H2.19141L2.33203 6.92187ZM4.86719 6.92187L5.00391 7.35156H5.45313L5.08984 7.61328L5.23047 8.03516L4.86719 7.77344L4.50391 8.03516L4.64453 7.60937L4.28125 7.34766H4.72656L4.86719 6.92187ZM7.39844 6.92187L7.53906 7.35156H7.98438L7.625 7.61328L7.76172 8.03516L7.39844 7.77344L7.03906 8.03516L7.17578 7.60937L6.81641 7.34766H7.26172L7.39844 6.92187ZM9.9336 6.92187L10.0703 7.35156H10.5195L10.1563 7.61328L10.2969 8.03516L9.9336 7.77344L9.57031 8.03516L9.71094 7.60937L9.34766 7.34766H9.79688L9.9336 6.92187ZM-1.46484 8L-1.32812 8.42578H-0.878906L-1.24219 8.6875L-1.10547 9.11719L-1.46484 8.85156L-1.82812 9.11328L-1.69141 8.6875L-2.05078 8.42578H-1.60547L-1.46484 8ZM1.06641 8L1.20703 8.42578H1.65234L1.28906 8.6875L1.42969 9.11719L1.06641 8.85156L0.703125 9.11328L0.84375 8.6875L0.480469 8.42578H0.929688L1.06641 8ZM3.60156 8L3.73828 8.42578H4.1875L3.82422 8.6875L3.96094 9.11719L3.60156 8.85156L3.23828 9.11328L3.375 8.6875L3.01563 8.42578H3.46094L3.60156 8ZM6.13281 8L6.27344 8.42578H6.71875L6.35938 8.6875L6.4961 9.11719L6.13281 8.85156L5.77344 9.11328L5.91016 8.6875L5.54688 8.42578H6L6.13281 8ZM8.66797 8L8.80469 8.42578H9.25391L8.89063 8.6875L9.02734 9.11719L8.66797 8.85156L8.30469 9.11328L8.44141 8.6875L8.08203 8.42578H8.52735L8.66797 8ZM-2.73437 9.07812L-2.59375 9.50391H-2.14844L-2.50781 9.76562L-2.37109 10.1914L-2.73437 9.92969L-3.09375 10.1914L-2.95703 9.76172L-3.32031 9.5H-2.86719L-2.73437 9.07812ZM-0.199219 9.07812L-0.0624995 9.50391H0.386719L0.0234377 9.76562L0.164063 10.1914L-0.199219 9.92969L-0.5625 10.1914L-0.421875 9.76172L-0.785156 9.5H-0.339844L-0.199219 9.07812ZM2.33203 9.07812L2.47266 9.50391H2.91406L2.5625 9.76562L2.69922 10.1914L2.33594 9.92969L1.97656 10.1914L2.11328 9.76172L1.75 9.5H2.19922L2.33203 9.07812ZM4.86719 9.07812L5.00391 9.50391H5.45313L5.08984 9.76562L5.23047 10.1914L4.86719 9.92969L4.50391 10.1914L4.64453 9.76172L4.28125 9.5H4.72656L4.86719 9.07812ZM7.39844 9.07812L7.53906 9.50391H7.98438L7.625 9.76562L7.76172 10.1914L7.39844 9.92969L7.03906 10.1914L7.17578 9.76172L6.81641 9.5H7.26172L7.39844 9.07812ZM9.9336 9.07812L10.0703 9.50391H10.5195L10.1563 9.76562L10.2969 10.1914L9.9336 9.92969L9.57031 10.1914L9.71094 9.76172L9.34766 9.5H9.79688L9.9336 9.07812Z" fill="white"/>
</g>
</g>
<defs>
<clipPath id="clip0_1836_4556">
<rect width="20" height="20" rx="10" fill="white"/>
</clipPath>
<clipPath id="clip1_1836_4556">
<rect width="20" height="20" fill="white"/>
</clipPath>
</defs>
</svg>
