<svg width="1122" height="89" viewBox="0 0 1122 89" fill="none" xmlns="http://www.w3.org/2000/svg">
<path d="M1121 1.75024C1121 1.75024 1044 36.0525 974.347 39.9932C906.504 43.8314 862.163 33 803.558 16.5C788.118 12.1529 766.116 6.5 746.581 7C719.52 7.69266 692.272 16.7134 674.954 23C657.047 29.5 646.267 35.0648 631 43C609.837 54 600.355 68.5529 554.488 76.5C522.936 81.9668 497.417 49.4147 461.698 47.4874C387.584 43.4884 390.07 82.5952 282.478 86.8301C251.163 88.0627 230.568 82.4831 211.517 73.5095C204.448 70.1797 205.88 66.8887 197.325 64.0562C187.496 60.8018 177.442 61.8035 165.393 59.7592C133.753 54.3913 128.757 42.323 94.4318 39.9932C56.3787 37.4104 1.00004 52.0247 1.00004 52.0247" stroke="#22C55E" stroke-width="3"/>
</svg>
