<svg width="12" height="8" viewBox="0 0 12 8" fill="none" xmlns="http://www.w3.org/2000/svg">
<path d="M1.6129 7.7903L1.70711 7.70711L4 5.415L5.29289 6.70711C5.65338 7.06759 6.22061 7.09532 6.6129 6.7903L6.70711 6.70711L9.5 3.915L10.2929 4.70711C10.8955 5.30968 11.9072 4.92767 11.994 4.11363L12 4L11.9983 0.940615L11.9893 0.85305L11.9643 0.73416L11.9401 0.658334L11.9063 0.576778L11.854 0.479291L11.7871 0.382978L11.7071 0.292859C11.6717 0.257499 11.6343 0.225313 11.5953 0.196335L11.4841 0.124671L11.3713 0.0712255L11.266 0.0358451L11.1485 0.0110178L11.0892 0.00396641L11 0H8C7.14783 0 6.70257 0.985514 7.21677 1.62253L7.29289 1.70711L8.085 2.5L6 4.585L4.70711 3.29289C4.34662 2.93241 3.77939 2.90468 3.3871 3.2097L3.29289 3.29289L0.292893 6.29289C-0.0976311 6.68342 -0.0976311 7.31658 0.292893 7.70711C0.653377 8.06759 1.22061 8.09532 1.6129 7.7903Z" fill="#4ADE80"/>
</svg>
