<svg width="20" height="20" viewBox="0 0 20 20" fill="none" xmlns="http://www.w3.org/2000/svg">
<path fill-rule="evenodd" clip-rule="evenodd" d="M15 0C15.5523 0 16 0.447715 16 1V2H17C18.6569 2 20 3.34315 20 5V17C20 18.6569 18.6569 20 17 20H3C1.34315 20 0 18.6569 0 17V5C0 3.34315 1.34315 2 3 2H4V1C4 0.447715 4.44772 0 5 0C5.55229 0 6 0.447715 6 1V2H14V1C14 0.447715 14.4477 0 15 0ZM18 10H2V17C2 17.5523 2.44772 18 3 18H17C17.5523 18 18 17.5523 18 17V10ZM15 12C15.5523 12 16 12.4477 16 13V15C16 15.5523 15.5523 16 15 16H13C12.4477 16 12 15.5523 12 15V13C12 12.4477 12.4477 12 13 12H15ZM4 4H3C2.44772 4 2 4.44772 2 5V8H18V5C18 4.44772 17.5523 4 17 4H16V5C16 5.55228 15.5523 6 15 6C14.4477 6 14 5.55228 14 5V4H6V5C6 5.55228 5.55228 6 5 6C4.44772 6 4 5.55228 4 5V4Z" fill="#475569"/>
</svg>
