<svg width="20" height="20" viewBox="0 0 20 20" fill="none" xmlns="http://www.w3.org/2000/svg">
<path fill-rule="evenodd" clip-rule="evenodd" d="M10 0C15.5228 0 20 4.47715 20 10C20 15.5228 15.5228 20 10 20C4.47715 20 0 15.5228 0 10C0 4.47715 4.47715 0 10 0ZM10 2C5.58172 2 2 5.58172 2 10C2 14.4183 5.58172 18 10 18C14.4183 18 18 14.4183 18 10C18 5.58172 14.4183 2 10 2ZM10 16C12.2091 16 14 14.2091 14 12H6L6.0049 12.1996C6.10892 14.316 7.8578 16 10 16ZM6.5 6C7.32843 6 8 6.67157 8 7.5C8 8.32843 7.32843 9 6.5 9C5.67157 9 5 8.32843 5 7.5C5 6.67157 5.67157 6 6.5 6ZM15 7.5C15 6.67157 14.3284 6 13.5 6C12.6716 6 12 6.67157 12 7.5C12 8.32843 12.6716 9 13.5 9C14.3284 9 15 8.32843 15 7.5Z" fill="#2563EB"/>
</svg>
